<svg width="35" height="27" viewBox="0 0 35 27" fill="none" xmlns="http://www.w3.org/2000/svg">
<path d="M32.2862 7.30554C30.9162 6.96554 29.5162 7.80554 29.1762 9.17554C28.9762 9.98554 29.1862 10.8055 29.6762 11.4055L21.4262 14.0655L18.1862 5.30554C19.2562 5.21554 20.1862 4.46554 20.4662 3.36554C20.8062 1.99554 19.9662 0.595544 18.5962 0.255544C17.2262 -0.084456 15.8262 0.755544 15.4862 2.12554C15.2162 3.22554 15.6962 4.32554 16.5962 4.90554L9.63623 11.1355L3.57623 4.92554C4.28623 4.61554 4.85621 3.99554 5.05621 3.18554C5.39621 1.81554 4.55621 0.415544 3.18621 0.075544C1.81621 -0.264456 0.416228 0.575544 0.0762282 1.94554C-0.263772 3.31554 0.566224 4.68554 1.91622 5.04554L2.07623 21.7555L23.1462 26.9755L31.0762 12.2655C32.4462 12.5855 33.8162 11.7555 34.1562 10.3855C34.4962 9.01554 33.6562 7.61554 32.2862 7.27554V7.30554Z" fill="#F1CE20"/>
</svg>
